<?xml version="1.0" standalone="no"?>
<!DOCTYPE svg PUBLIC "-//W3C//DTD SVG 20010904//EN"
 "http://www.w3.org/TR/2001/REC-SVG-20010904/DTD/svg10.dtd">
<svg version="1.0" xmlns="http://www.w3.org/2000/svg"
 width="3992.000000pt" height="3508.000000pt" viewBox="0 0 3992.000000 3508.000000"
 preserveAspectRatio="xMidYMid meet">

<g transform="translate(0.000000,3508.000000) scale(0.100000,-0.100000)"
fill="#000000" stroke="none">
<path d="M19815 29664 c-178 -11 -441 -38 -595 -60 -1979 -284 -3701 -1430
-4724 -3144 -119 -198 -330 -626 -419 -848 l-74 -184 -279 -93 c-602 -201
-1048 -383 -1549 -630 -450 -222 -550 -288 -595 -388 -56 -123 9 -291 135
-348 78 -36 162 -27 420 46 425 120 1577 397 1591 382 3 -2 0 -25 -5 -50 -71
-312 -105 -814 -89 -1307 62 -2014 1168 -3975 2876 -5101 178 -118 245 -148
338 -156 51 -5 71 -1 116 19 95 44 167 155 168 258 0 91 -32 144 -162 267
-314 298 -544 562 -759 868 -561 802 -895 1707 -1006 2725 -22 208 -25 840 -5
1050 58 592 196 1155 399 1627 32 75 38 83 67 88 40 6 542 41 791 55 756 41
1654 41 2370 0 2560 -146 4838 -748 6199 -1636 575 -376 963 -773 1177 -1204
69 -139 108 -247 145 -406 26 -110 28 -135 28 -324 1 -190 -1 -213 -26 -312
-54 -211 -144 -405 -288 -617 -435 -640 -1325 -1294 -2477 -1817 -103 -47
-217 -101 -253 -121 -81 -46 -167 -126 -191 -178 -54 -116 17 -285 139 -332
33 -13 72 -18 132 -17 74 1 104 8 240 54 1997 675 3430 1562 4174 2583 237
325 406 690 486 1048 70 310 67 693 -7 1004 -88 372 -282 754 -559 1100 -121
151 -439 466 -613 608 -924 750 -2274 1334 -3906 1691 -916 200 -1831 315
-2920 367 -324 16 -1243 16 -1545 1 -766 -40 -1474 -112 -2160 -221 -102 -16
-186 -28 -188 -27 -5 6 172 218 281 337 914 996 2141 1648 3477 1848 326 48
445 56 880 56 433 0 527 -6 860 -55 1040 -154 2040 -580 2820 -1203 151 -121
211 -152 295 -151 77 0 125 25 197 102 107 116 103 229 -14 377 -142 179 -517
558 -758 766 -838 723 -1808 1215 -2860 1453 -262 59 -528 101 -845 132 -142
14 -791 27 -930 18z"/>
<path d="M21452 19310 c-24 -11 -338 -189 -698 -396 l-654 -377 0 -2434 0
-2433 743 2 c701 3 744 4 777 22 49 26 98 74 123 121 l22 40 0 2665 0 2665
-23 42 c-35 66 -90 97 -176 101 -55 2 -81 -2 -114 -18z"/>
<path d="M19133 17982 c-314 -182 -528 -312 -552 -336 -22 -21 -50 -62 -63
-90 l-23 -51 -3 -1850 -2 -1850 22 -45 c17 -33 35 -51 68 -67 44 -23 45 -23
557 -23 l513 0 0 2305 c0 1268 -1 2305 -2 2304 -2 0 -234 -134 -515 -297z"/>
<path d="M6365 11214 c-300 -119 -646 -321 -801 -467 -86 -81 -123 -142 -143
-235 -8 -38 -11 -729 -11 -2466 l0 -2414 73 -26 c462 -164 1292 -241 1791
-166 344 52 654 164 906 328 271 176 506 442 644 732 140 293 203 569 213 935
13 469 -58 861 -218 1194 -186 388 -467 638 -868 771 -452 151 -1016 130
-1453 -55 -17 -7 -18 44 -20 953 l-3 960 -110 -44z m970 -2633 c311 -80 497
-312 571 -711 28 -149 26 -535 -3 -690 -43 -225 -124 -414 -236 -555 -207
-258 -510 -366 -939 -335 -79 5 -165 16 -193 22 l-50 13 -3 1075 -2 1075 21
17 c47 39 277 96 449 112 104 9 306 -3 385 -23z"/>
<path d="M19545 11220 c-161 -64 -451 -213 -580 -298 -225 -148 -312 -231
-358 -344 -22 -52 -22 -66 -25 -596 -3 -505 -4 -543 -20 -537 -9 3 -68 16
-132 27 -161 30 -597 32 -770 5 -314 -50 -582 -151 -811 -306 -454 -305 -729
-782 -809 -1401 -19 -143 -24 -424 -11 -575 66 -761 398 -1288 991 -1574 198
-96 406 -156 670 -193 123 -17 666 -17 845 0 388 38 733 103 1018 192 l97 31
0 2804 c0 1543 -1 2805 -2 2805 -2 -1 -48 -19 -103 -40z m-1115 -2604 c47 -9
100 -22 118 -27 l32 -11 -2 -1116 -3 -1116 -45 -13 c-171 -51 -488 -62 -670
-24 -507 106 -749 507 -727 1206 21 661 268 1025 755 1111 106 18 427 12 542
-10z"/>
<path d="M13380 9510 c-224 -17 -497 -58 -706 -105 l-71 -17 -11 -51 c-29
-130 -34 -209 -29 -412 3 -140 10 -239 22 -295 9 -47 18 -86 19 -87 1 -2 56 8
122 22 284 59 531 85 808 85 192 0 305 -11 416 -41 219 -59 371 -196 431 -389
20 -65 45 -261 36 -284 -4 -9 -32 -10 -137 0 -241 22 -401 26 -577 15 -364
-24 -617 -84 -868 -206 -343 -167 -545 -423 -610 -774 -19 -107 -20 -364 0
-491 92 -608 500 -944 1270 -1047 165 -22 686 -25 875 -5 342 36 658 97 988
189 l92 26 0 1156 c0 718 -4 1208 -11 1292 -65 830 -507 1287 -1359 1404 -138
19 -538 27 -700 15z m835 -2290 c88 -6 170 -13 183 -16 l22 -4 0 -450 0 -450
-24 -10 c-38 -14 -337 -40 -460 -40 -208 1 -396 38 -518 102 -163 86 -248 268
-219 467 15 100 49 170 113 235 147 147 422 197 903 166z"/>
<path d="M21975 9513 c-378 -30 -679 -129 -940 -307 -108 -74 -265 -222 -350
-331 -209 -268 -342 -612 -402 -1035 -25 -177 -25 -626 0 -795 108 -732 477
-1234 1082 -1473 259 -102 508 -149 845 -159 439 -13 900 54 1214 177 l104 41
19 97 c26 138 26 506 0 643 l-18 95 -142 -38 c-589 -159 -1133 -187 -1463 -74
-252 86 -425 242 -524 474 -30 72 -64 190 -75 266 l-7 46 1223 2 1224 3 13 70
c19 101 27 615 13 757 -94 906 -623 1460 -1471 1537 -107 10 -252 12 -345 4z
m328 -839 c212 -47 373 -194 447 -408 21 -63 46 -185 55 -273 l6 -63 -747 0
-747 0 7 38 c21 132 98 322 171 422 99 135 257 241 417 281 96 23 292 25 391
3z"/>
<path d="M25640 9514 c-433 -40 -769 -178 -1009 -413 -222 -219 -320 -502
-291 -842 26 -304 109 -490 304 -677 163 -157 374 -273 851 -467 391 -160 484
-214 540 -310 53 -90 53 -250 0 -341 -80 -136 -246 -194 -559 -194 -319 0
-600 50 -983 175 -92 30 -168 53 -169 52 -9 -9 -36 -179 -45 -282 -13 -141 -2
-329 27 -473 l17 -84 76 -35 c187 -86 465 -156 746 -188 195 -22 611 -31 750
-16 388 42 701 172 923 385 108 103 171 190 231 317 86 179 118 355 107 584
-20 437 -164 700 -509 927 -119 78 -278 154 -612 293 -332 138 -438 191 -506
252 -70 63 -92 111 -91 196 1 140 74 224 237 268 71 20 105 22 305 22 314 0
560 -35 872 -125 l117 -34 10 60 c6 34 16 115 22 181 19 207 -8 544 -48 572
-28 21 -166 71 -270 98 -133 35 -290 62 -458 80 -141 15 -501 27 -585 19z"/>
<path d="M29266 9508 c-307 -27 -614 -132 -861 -295 -143 -95 -337 -291 -438
-443 -178 -270 -293 -597 -339 -970 -17 -136 -17 -544 0 -680 113 -914 617
-1504 1422 -1664 196 -39 339 -50 575 -43 308 9 542 46 774 124 105 35 301
121 301 132 0 3 -27 44 -61 91 -124 174 -219 346 -294 535 -26 66 -48 121 -49
122 -1 1 -52 -15 -114 -37 -188 -66 -287 -82 -512 -83 -171 0 -205 2 -275 22
-354 97 -568 368 -651 826 -25 138 -25 506 -1 650 72 418 257 680 555 786 121
42 209 52 404 46 197 -6 295 -24 482 -88 120 -41 135 -41 136 -2 0 23 88 238
135 333 64 129 113 211 179 303 l56 78 -87 41 c-281 130 -536 194 -873 218
-167 11 -322 11 -464 -2z"/>
<path d="M32455 9514 c-965 -81 -1552 -662 -1692 -1674 -21 -157 -24 -574 -5
-730 61 -487 232 -883 506 -1168 146 -151 266 -242 435 -326 280 -141 570
-206 920 -206 438 0 807 102 1121 311 138 91 325 281 423 429 219 331 330 721
344 1211 17 579 -102 1052 -360 1434 -84 124 -294 333 -417 414 -227 151 -477
244 -770 286 -105 15 -411 27 -505 19z m405 -894 c248 -71 408 -260 489 -578
35 -136 51 -276 58 -492 20 -715 -147 -1112 -520 -1237 -77 -25 -93 -27 -262
-27 -170 -1 -184 1 -262 27 -336 113 -499 441 -520 1047 -13 377 37 683 148
909 43 87 65 118 133 186 65 66 98 90 166 123 120 58 196 73 360 68 98 -3 155
-10 210 -26z"/>
<path d="M9960 9459 c-63 -5 -146 -14 -185 -21 l-70 -13 -3 -1966 -2 -1966 67
-12 c38 -6 154 -17 258 -23 199 -12 501 -2 667 23 l77 11 4 1047 c4 1140 4
1134 63 1339 111 383 355 623 699 687 73 14 131 17 312 13 l222 -5 10 48 c24
108 35 245 35 424 1 204 -17 380 -40 389 -38 15 -196 29 -319 29 -293 -1 -533
-76 -740 -230 -79 -59 -254 -232 -289 -286 -10 -15 -21 -27 -25 -27 -4 0 -12
37 -19 83 -15 92 -62 284 -90 367 -19 55 -19 55 -73 67 -55 13 -331 34 -404
32 -22 -1 -92 -6 -155 -10z"/>
</g>
</svg>
