<?xml version="1.0" standalone="no"?>
<!DOCTYPE svg PUBLIC "-//W3C//DTD SVG 20010904//EN"
 "http://www.w3.org/TR/2001/REC-SVG-20010904/DTD/svg10.dtd">
<svg version="1.0" xmlns="http://www.w3.org/2000/svg"
 width="4962.000000pt" height="1610.000000pt" viewBox="0 0 4962.000000 1610.000000"
 preserveAspectRatio="xMidYMid meet">

<g transform="translate(0.000000,1610.000000) scale(0.100000,-0.100000)"
fill="#000000" stroke="none">
<path d="M8119 12849 c-718 -48 -1441 -305 -2014 -714 -255 -182 -546 -450
-739 -681 -259 -310 -494 -701 -627 -1046 l-34 -88 -140 -46 c-355 -118 -684
-253 -980 -400 -288 -144 -334 -181 -342 -271 -3 -37 1 -57 19 -87 58 -98 119
-104 367 -32 253 73 896 225 905 215 2 -2 -5 -55 -15 -116 -34 -210 -42 -352
-36 -632 6 -266 18 -393 58 -606 97 -521 320 -1051 628 -1495 234 -337 567
-678 904 -923 273 -199 358 -226 446 -138 20 20 42 55 49 79 24 78 10 100
-171 283 -188 190 -294 318 -423 514 -312 474 -497 999 -554 1574 -13 134 -13
475 1 621 23 256 84 539 168 782 61 176 86 226 113 232 48 11 506 36 833 47
509 17 1118 -6 1640 -61 2023 -215 3528 -891 3866 -1737 77 -190 90 -419 34
-593 -33 -105 -106 -246 -182 -354 -74 -103 -308 -340 -439 -443 -280 -221
-616 -421 -1013 -603 -83 -38 -172 -83 -197 -101 -84 -58 -104 -125 -61 -209
46 -93 133 -103 321 -39 649 222 1204 486 1651 784 215 144 356 257 519 415
223 217 366 406 471 625 105 218 149 404 149 635 0 401 -164 763 -506 1115
-261 270 -573 486 -1013 701 -844 412 -1853 650 -3125 736 -283 19 -1052 16
-1340 -5 -370 -28 -771 -74 -1065 -122 -49 -8 -91 -12 -93 -10 -9 9 132 170
273 311 759 760 1822 1131 2895 1008 569 -64 1150 -278 1610 -592 52 -36 133
-95 180 -132 102 -81 138 -100 185 -100 47 0 83 20 128 69 31 35 37 48 37 86
0 25 -9 62 -19 83 -41 80 -344 390 -546 557 -788 654 -1767 973 -2776 904z"/>
<path d="M16150 9470 c-165 -66 -419 -194 -550 -276 -310 -194 -424 -310 -459
-465 -7 -29 -11 -930 -11 -2650 l0 -2607 109 -36 c213 -71 484 -125 831 -167
253 -31 836 -34 1025 -6 820 123 1387 506 1698 1145 217 445 285 1000 197
1602 -122 835 -553 1369 -1251 1549 -164 42 -300 61 -499 68 -201 7 -365 -6
-548 -43 -119 -24 -292 -74 -342 -99 -14 -7 -35 -16 -47 -19 l-23 -7 -2 1030
-3 1030 -125 -49z m985 -2815 c423 -74 658 -408 694 -990 23 -375 -43 -742
-177 -975 -73 -128 -197 -266 -305 -339 -76 -52 -209 -110 -315 -138 -162 -43
-563 -44 -714 -2 l-38 10 0 1159 0 1160 38 19 c83 42 273 89 422 104 99 10
315 6 395 -8z"/>
<path d="M30275 9461 c-263 -109 -415 -188 -610 -316 -218 -143 -318 -242
-367 -362 l-23 -58 -3 -577 c-1 -318 -6 -578 -10 -578 -4 0 -49 9 -100 19
-217 45 -630 53 -872 16 -463 -70 -834 -246 -1139 -540 -311 -300 -512 -704
-591 -1185 -95 -581 -10 -1205 222 -1640 285 -534 770 -858 1458 -972 123 -20
169 -22 505 -22 222 0 418 4 490 12 410 42 706 97 1025 189 85 24 156 46 157
47 2 2 2 1358 1 3014 l-3 3011 -140 -58z m-1200 -2776 c50 -8 113 -21 140 -28
l50 -13 3 -1201 2 -1201 -22 -6 c-13 -4 -63 -16 -113 -27 -118 -27 -425 -37
-558 -19 -403 54 -675 286 -790 670 -115 382 -93 945 51 1288 122 292 355 480
664 536 46 9 99 17 118 20 69 9 367 -3 455 -19z"/>
<path d="M23735 7644 c-169 -13 -388 -39 -514 -60 -135 -23 -361 -70 -367 -77
-8 -8 -34 -154 -43 -246 -14 -131 -14 -245 0 -391 10 -107 34 -258 42 -267 2
-2 82 12 178 31 323 65 643 93 929 82 333 -12 530 -81 672 -235 102 -109 153
-246 165 -438 6 -97 5 -103 -13 -103 -11 0 -100 7 -199 16 -242 22 -621 14
-820 -15 -695 -105 -1131 -401 -1279 -870 -48 -153 -59 -245 -53 -466 7 -285
44 -444 150 -647 199 -386 596 -611 1218 -694 166 -22 637 -30 840 -15 370 28
767 98 1129 199 l135 37 3 1220 c2 794 -1 1275 -8 1377 -21 309 -77 530 -191
758 -66 132 -137 229 -248 340 -241 239 -583 387 -1031 446 -119 15 -575 27
-695 18z m867 -2464 c84 -6 163 -13 176 -16 l22 -4 0 -485 c0 -266 -4 -486 -9
-489 -4 -3 -64 -13 -132 -23 -88 -12 -192 -17 -359 -17 -207 0 -247 3 -340 23
-239 51 -380 150 -441 308 -30 80 -38 243 -15 333 54 208 241 332 556 369 108
12 365 13 542 1z"/>
<path d="M32853 7639 c-830 -74 -1425 -559 -1661 -1354 -137 -461 -154 -1049
-46 -1533 56 -251 178 -533 312 -722 86 -121 280 -316 402 -403 252 -179 595
-307 975 -364 172 -26 719 -26 920 0 285 37 557 101 735 174 l95 39 19 89 c27
133 29 558 2 700 -10 55 -19 101 -21 103 -1 1 -89 -20 -196 -47 -397 -102
-588 -131 -914 -138 -191 -4 -264 -2 -358 11 -524 74 -814 353 -902 869 l-6
37 1314 0 1315 0 5 23 c37 150 46 749 14 962 -89 594 -337 1021 -750 1290
-325 211 -777 307 -1254 264z m482 -913 c280 -96 437 -329 471 -699 l7 -77
-802 0 -801 0 6 28 c20 90 46 188 64 232 115 291 315 471 595 536 41 9 110 13
220 10 144 -2 168 -5 240 -30z"/>
<path d="M36850 7644 c-247 -28 -344 -48 -511 -104 -537 -179 -862 -567 -886
-1055 -15 -317 67 -610 227 -809 176 -218 418 -364 1000 -601 337 -137 428
-180 499 -234 108 -80 148 -172 139 -317 -8 -138 -66 -227 -189 -288 -122 -61
-190 -71 -474 -70 -203 1 -277 5 -390 22 -184 29 -417 86 -643 160 l-182 60
-10 -38 c-54 -199 -53 -609 1 -823 11 -46 11 -46 105 -87 236 -103 487 -164
839 -202 75 -8 247 -13 455 -13 359 0 398 4 625 61 264 67 510 200 680 368
262 260 372 581 344 1000 -28 432 -183 707 -527 937 -138 93 -297 169 -700
339 -448 187 -528 234 -587 341 -26 47 -30 64 -29 129 1 162 90 252 289 296
98 21 429 24 605 5 205 -22 491 -81 680 -140 35 -11 66 -19 68 -17 13 14 33
202 39 366 6 189 -3 334 -28 451 -10 45 -13 48 -70 74 -253 113 -650 181
-1104 189 -126 3 -246 3 -265 0z"/>
<path d="M40790 7644 c-741 -68 -1274 -420 -1576 -1039 -150 -309 -228 -652
-241 -1065 -18 -591 109 -1101 374 -1500 88 -131 264 -319 386 -411 240 -181
530 -301 877 -362 111 -19 160 -22 435 -22 334 0 445 10 675 61 144 32 349
100 460 152 122 58 118 54 83 99 -141 179 -302 472 -378 686 -15 42 -29 77
-31 77 -2 0 -70 -22 -151 -49 -214 -70 -252 -76 -523 -76 -267 0 -320 10 -469
84 -396 200 -601 722 -540 1381 51 564 291 908 704 1012 77 19 116 22 275 22
105 0 217 -5 260 -13 108 -18 286 -66 376 -101 43 -16 79 -30 80 -30 1 0 7 21
13 47 45 178 208 505 345 694 25 35 46 66 46 69 0 8 -178 89 -277 126 -175 67
-366 113 -577 139 -116 15 -533 27 -626 19z"/>
<path d="M44115 7640 c-510 -52 -893 -226 -1206 -546 -207 -213 -344 -447
-447 -764 -158 -489 -174 -1115 -42 -1635 211 -827 788 -1339 1627 -1441 172
-20 541 -15 703 11 1063 169 1664 1006 1627 2265 -4 113 -13 257 -22 320 -78
589 -308 1054 -670 1358 -268 225 -584 360 -980 418 -123 18 -468 26 -590 14z
m371 -931 c373 -52 594 -305 674 -775 43 -253 50 -634 15 -900 -62 -470 -249
-745 -570 -836 -69 -19 -104 -23 -250 -23 -196 0 -250 11 -385 77 -149 73
-268 214 -341 403 -82 211 -112 420 -112 775 0 285 15 436 63 625 97 387 311
607 635 654 87 12 182 13 271 0z"/>
<path d="M19895 7575 c-61 -8 -123 -19 -138 -24 l-27 -11 0 -2105 0 -2105 23
-5 c150 -36 478 -52 745 -36 189 10 311 22 370 36 l22 5 0 1091 c0 695 4 1125
11 1187 15 138 52 296 95 404 123 310 325 503 621 595 87 27 91 28 375 28
l287 0 10 45 c27 125 36 241 36 460 0 279 -15 407 -49 419 -52 20 -242 34
-393 28 -285 -11 -504 -79 -705 -220 -82 -57 -253 -219 -319 -302 -24 -30 -47
-55 -50 -55 -3 0 -12 35 -18 78 -24 148 -99 434 -121 456 -38 38 -555 59 -775
31z"/>
<path d="M9123 6638 c-33 -18 -221 -125 -417 -238 l-356 -205 0 -1458 0 -1458
449 3 c438 3 450 4 478 24 15 11 38 36 51 54 l22 33 0 1589 c0 1746 4 1634
-59 1671 -45 26 -100 21 -168 -15z"/>
<path d="M7761 5856 c-262 -152 -319 -188 -340 -221 l-26 -38 -3 -1116 c-2
-844 1 -1123 10 -1145 21 -52 47 -56 378 -56 l300 0 0 1380 c0 759 -1 1380 -2
1379 -2 0 -144 -83 -317 -183z"/>
</g>
</svg>
